<?xml version="1.0" encoding="UTF-8" standalone="no" ?>
<!DOCTYPE svg PUBLIC "-//W3C//DTD SVG 1.1//EN" "http://www.w3.org/Graphics/SVG/1.1/DTD/svg11.dtd">
<svg width="330mm" xmlns="http://www.w3.org/2000/svg" height="133mm" version="1.1" viewBox="0 0 1249 504" xmlns:xlink="http://www.w3.org/1999/xlink">
   <polyline fill="none" points="282,238 282,201 408,201 408,149" stroke="#8080ff" stroke-width="1"/>
   <polygon fill="#ffffff" points="408,151 415,164 402,164" stroke="#8080ff" stroke-width="1" stroke-linejoin="miter"/>
   <polyline fill="none" points="560,247 560,207 462,207 462,126" stroke="#8080ff" stroke-width="1"/>
   <polygon fill="#ffffff" points="462,151 468,164 455,164" stroke="#8080ff" stroke-width="1" stroke-linejoin="miter"/>
   <polyline fill="none" points="430,455 259,455 259,283" stroke="#0080ff" stroke-width="1"/>
   <polyline fill="none" points="263,327 259,314 255,327" stroke="#0080ff" stroke-width="1"/>
   <text x="259" y="467" fill="#000000" font-size="10" font-family="Arial" text-anchor="middle">Passe</text>
   <text x="394" y="466" fill="#000000" font-size="10" font-family="Arial" text-anchor="middle">0..*</text>
   <text x="272" y="340" fill="#000000" font-size="10" font-family="Arial" text-anchor="middle">1..1</text>
   <polyline fill="none" points="596,441 930,441" stroke="#0080ff" stroke-width="1"/>
   <polyline fill="none" points="875,445 888,441 875,437" stroke="#0080ff" stroke-width="1"/>
   <text x="744" y="435" fill="#000000" font-size="10" font-family="Arial" text-anchor="middle">Contient</text>
   <text x="630" y="436" fill="#000000" font-size="10" font-family="Arial" text-anchor="middle">1..1</text>
   <text x="859" y="451" fill="#000000" font-size="10" font-family="Arial" text-anchor="middle">1..1</text>
   <polyline fill="none" points="1030,447 1203,447 1203,312" stroke="#0080ff" stroke-width="1"/>
   <polyline fill="none" points="1207,340 1203,326 1199,340" stroke="#0080ff" stroke-width="1"/>
   <text x="1202" y="458" fill="#000000" font-size="10" font-family="Arial" text-anchor="middle">Contient</text>
   <text x="1063" y="442" fill="#000000" font-size="10" font-family="Arial" text-anchor="middle">1..*</text>
   <text x="1214" y="353" fill="#000000" font-size="10" font-family="Arial" text-anchor="middle">1..1</text>
   <polyline fill="none" points="575,405 575,335 933,335 933,34" stroke="#0080ff" stroke-width="1"/>
   <polyline fill="none" points="937,134 933,121 929,134" stroke="#0080ff" stroke-width="1"/>
   <text x="753" y="338" fill="#000000" font-size="10" font-family="Arial" text-anchor="middle">Ajouter</text>
   <text x="575" y="383" fill="#000000" font-size="10" font-family="Arial" text-anchor="middle">*</text>
   <text x="945" y="148" fill="#000000" font-size="10" font-family="Arial" text-anchor="middle">1..1</text>
   <polyline fill="none" points="967,58 1138,58" stroke="#0080ff" stroke-width="1"/>
   <polyline fill="none" points="1112,62 1125,58 1112,54" stroke="#0080ff" stroke-width="1"/>
   <text x="1051" y="52" fill="#000000" font-size="10" font-family="Arial" text-anchor="middle">contient</text>
   <text x="993" y="77" fill="#000000" font-size="10" font-family="Arial" text-anchor="middle">*</text>
   <text x="1096" y="68" fill="#000000" font-size="10" font-family="Arial" text-anchor="middle">1..1</text>
   <polyline fill="none" points="141,274 119,274 119,136" stroke="#0080ff" stroke-width="1"/>
   <polyline fill="none" points="123,190 119,177 115,190" stroke="#0080ff" stroke-width="1"/>
   <text x="125" y="219" fill="#000000" font-size="10" font-family="Arial" text-anchor="middle">Posseder</text>
   <text x="99" y="284" fill="#000000" font-size="10" font-family="Arial" text-anchor="middle">0..1</text>
   <text x="132" y="203" fill="#000000" font-size="10" font-family="Arial" text-anchor="middle">1..1</text>
   <defs>
      <linearGradient id="Gradient1" x1="0%" x2="100%" y1="0%" y2="100%" gradientUnits="objectBoundingBox">
         <stop offset="5%" stop-color="#ffffff"/>
         <stop offset="95%" stop-color="#aee4ff"/>
      </linearGradient>
   </defs>
   <rect x="2" y="2" fill="url(#Gradient1)" width="325" height="175" stroke="#0080ff" stroke-width="1"/>
   <text x="164" y="13" fill="#000000" font-size="10" font-family="Arial" text-anchor="middle">Panier</text>
   <line x1="2" x2="327" y1="19" y2="19" stroke="#0080ff" stroke-width="1"/>
   <text x="7" y="29" fill="#000000" font-size="10" font-family="Arial">-</text>
   <text x="7" y="42" fill="#000000" font-size="10" font-family="Arial">-</text>
   <text x="7" y="55" fill="#000000" font-size="10" font-family="Arial">-</text>
   <text x="7" y="68" fill="#000000" font-size="10" font-family="Arial">-</text>
   <text x="7" y="81" fill="#000000" font-size="10" font-family="Arial" text-decoration="underline">-</text>
   <text x="18" y="29" fill="#000000" font-size="10" font-family="Arial">idPanier</text>
   <text x="18" y="42" fill="#000000" font-size="10" font-family="Arial">dateCreation</text>
   <text x="18" y="55" fill="#000000" font-size="10" font-family="Arial">listeProduit</text>
   <text x="18" y="68" fill="#000000" font-size="10" font-family="Arial">quantiteTotal</text>
   <text x="18" y="81" fill="#000000" font-size="10" font-family="Arial" text-decoration="underline">prixTotal</text>
   <text x="89" y="29" fill="#000000" font-size="10" font-family="Arial">: int</text>
   <text x="89" y="42" fill="#000000" font-size="10" font-family="Arial">: Date</text>
   <text x="89" y="55" fill="#000000" font-size="10" font-family="Arial">: Produit</text>
   <text x="89" y="68" fill="#000000" font-size="10" font-family="Arial">: int</text>
   <text x="89" y="81" fill="#000000" font-size="10" font-family="Arial" text-decoration="underline">: Double</text>
   <line x1="2" x2="327" y1="88" y2="88" stroke="#0080ff" stroke-width="1"/>
   <text x="7" y="98" fill="#000000" font-size="10" font-family="Arial">+</text>
   <text x="7" y="124" fill="#000000" font-size="10" font-family="Arial">+</text>
   <text x="7" y="136" fill="#000000" font-size="10" font-family="Arial">+</text>
   <text x="7" y="162" fill="#000000" font-size="10" font-family="Arial">+</text>
   <text x="21" y="98" fill="#000000" font-size="10" font-family="Arial">ajouterProduit (Produit produit,</text>
   <text x="21" y="108" fill="#000000" font-size="10" font-family="Arial"> int quantite)</text>
   <text x="21" y="124" fill="#000000" font-size="10" font-family="Arial">supprimerProduit (Produit produit)</text>
   <text x="21" y="136" fill="#000000" font-size="10" font-family="Arial">modifierQuantite (Produit produit,</text>
   <text x="21" y="146" fill="#000000" font-size="10" font-family="Arial"> int quantite)</text>
   <text x="21" y="162" fill="#000000" font-size="10" font-family="Arial">viderPanier ()</text>
   <text x="188" y="98" fill="#000000" font-size="10" font-family="Arial">: void</text>
   <text x="188" y="124" fill="#000000" font-size="10" font-family="Arial">: void</text>
   <text x="188" y="136" fill="#000000" font-size="10" font-family="Arial">: void</text>
   <text x="188" y="162" fill="#000000" font-size="10" font-family="Arial">: void</text>
   <defs>
      <linearGradient id="Gradient2" x1="0%" x2="100%" y1="0%" y2="100%" gradientUnits="objectBoundingBox">
         <stop offset="5%" stop-color="#ffffff"/>
         <stop offset="95%" stop-color="#aee4ff"/>
      </linearGradient>
   </defs>
   <rect x="470" y="239" fill="url(#Gradient2)" width="218" height="77" stroke="#0080ff" stroke-width="1"/>
   <text x="579" y="250" fill="#000000" font-size="10" font-family="Arial" text-anchor="middle">Vendeur</text>
   <line x1="470" x2="688" y1="256" y2="256" stroke="#0080ff" stroke-width="1"/>
   <text x="474" y="266" fill="#000000" font-size="10" font-family="Arial">-</text>
   <text x="474" y="279" fill="#000000" font-size="10" font-family="Arial" text-decoration="underline">-</text>
   <text x="485" y="266" fill="#000000" font-size="10" font-family="Arial">login</text>
   <text x="485" y="279" fill="#000000" font-size="10" font-family="Arial" text-decoration="underline">motDePasse</text>
   <text x="551" y="266" fill="#000000" font-size="10" font-family="Arial">: String</text>
   <text x="551" y="279" fill="#000000" font-size="10" font-family="Arial" text-decoration="underline">: String</text>
   <line x1="470" x2="688" y1="286" y2="286" stroke="#0080ff" stroke-width="1"/>
   <text x="474" y="296" fill="#000000" font-size="10" font-family="Arial">+</text>
   <text x="474" y="309" fill="#000000" font-size="10" font-family="Arial">+</text>
   <text x="488" y="296" fill="#000000" font-size="10" font-family="Arial">ajouterProduit (Produit produit)</text>
   <text x="488" y="309" fill="#000000" font-size="10" font-family="Arial">supprimerProduit (Produit produit)</text>
   <text x="488" y="321" fill="#000000" font-size="10" font-family="Arial">...</text>
   <text x="655" y="296" fill="#000000" font-size="10" font-family="Arial">: void</text>
   <text x="655" y="309" fill="#000000" font-size="10" font-family="Arial">: void</text>
   <defs>
      <linearGradient id="Gradient3" x1="0%" x2="100%" y1="0%" y2="100%" gradientUnits="objectBoundingBox">
         <stop offset="5%" stop-color="#ffffff"/>
         <stop offset="95%" stop-color="#aee4ff"/>
      </linearGradient>
   </defs>
   <rect x="387" y="35" fill="url(#Gradient3)" width="138" height="116" stroke="#0080ff" stroke-width="1"/>
   <text x="456" y="46" fill="#000000" font-size="10" font-family="Arial" text-anchor="middle">Utilisateur</text>
   <line x1="387" x2="525" y1="52" y2="52" stroke="#0080ff" stroke-width="1"/>
   <text x="392" y="62" fill="#000000" font-size="10" font-family="Arial">-</text>
   <text x="392" y="75" fill="#000000" font-size="10" font-family="Arial">-</text>
   <text x="392" y="88" fill="#000000" font-size="10" font-family="Arial">-</text>
   <text x="392" y="101" fill="#000000" font-size="10" font-family="Arial">-</text>
   <text x="392" y="114" fill="#000000" font-size="10" font-family="Arial" text-decoration="underline">-</text>
   <text x="403" y="62" fill="#000000" font-size="10" font-family="Arial">idUtilisateur</text>
   <text x="403" y="75" fill="#000000" font-size="10" font-family="Arial">nom</text>
   <text x="403" y="88" fill="#000000" font-size="10" font-family="Arial">prenom</text>
   <text x="403" y="101" fill="#000000" font-size="10" font-family="Arial">email</text>
   <text x="403" y="114" fill="#000000" font-size="10" font-family="Arial" text-decoration="underline">adresse</text>
   <text x="467" y="62" fill="#000000" font-size="10" font-family="Arial">: int</text>
   <text x="467" y="75" fill="#000000" font-size="10" font-family="Arial">: String</text>
   <text x="467" y="88" fill="#000000" font-size="10" font-family="Arial">: String</text>
   <text x="467" y="101" fill="#000000" font-size="10" font-family="Arial">: String</text>
   <text x="467" y="114" fill="#000000" font-size="10" font-family="Arial" text-decoration="underline">: String</text>
   <line x1="387" x2="525" y1="121" y2="121" stroke="#0080ff" stroke-width="1"/>
   <text x="392" y="131" fill="#000000" font-size="10" font-family="Arial">+</text>
   <text x="392" y="144" fill="#000000" font-size="10" font-family="Arial">+</text>
   <text x="406" y="131" fill="#000000" font-size="10" font-family="Arial">SeConnecter ()</text>
   <text x="406" y="144" fill="#000000" font-size="10" font-family="Arial">SeDeconnecter ()</text>
   <text x="406" y="156" fill="#000000" font-size="10" font-family="Arial">...</text>
   <text x="495" y="131" fill="#000000" font-size="10" font-family="Arial">: void</text>
   <text x="495" y="144" fill="#000000" font-size="10" font-family="Arial">: void</text>
   <defs>
      <linearGradient id="Gradient4" x1="0%" x2="100%" y1="0%" y2="100%" gradientUnits="objectBoundingBox">
         <stop offset="5%" stop-color="#ffffff"/>
         <stop offset="95%" stop-color="#aee4ff"/>
      </linearGradient>
   </defs>
   <rect x="1125" y="20" fill="url(#Gradient4)" width="122" height="64" stroke="#0080ff" stroke-width="1"/>
   <text x="1186" y="31" fill="#000000" font-size="10" font-family="Arial" text-anchor="middle">CategorieProduit</text>
   <line x1="1125" x2="1247" y1="37" y2="37" stroke="#0080ff" stroke-width="1"/>
   <text x="1130" y="47" fill="#000000" font-size="10" font-family="Arial" text-decoration="underline">-</text>
   <text x="1130" y="60" fill="#000000" font-size="10" font-family="Arial">-</text>
   <text x="1141" y="47" fill="#000000" font-size="10" font-family="Arial" text-decoration="underline">idCategorie</text>
   <text x="1141" y="60" fill="#000000" font-size="10" font-family="Arial">libelle</text>
   <text x="1204" y="47" fill="#000000" font-size="10" font-family="Arial" text-decoration="underline">: int</text>
   <text x="1204" y="60" fill="#000000" font-size="10" font-family="Arial">: String</text>
   <line x1="1125" x2="1247" y1="67" y2="67" stroke="#0080ff" stroke-width="1"/>
   <defs>
      <linearGradient id="Gradient5" x1="0%" x2="100%" y1="0%" y2="100%" gradientUnits="objectBoundingBox">
         <stop offset="5%" stop-color="#ffffff"/>
         <stop offset="95%" stop-color="#aee4ff"/>
      </linearGradient>
   </defs>
   <rect x="853" y="5" fill="url(#Gradient5)" width="124" height="116" stroke="#0080ff" stroke-width="1"/>
   <text x="915" y="16" fill="#000000" font-size="10" font-family="Arial" text-anchor="middle">Produit</text>
   <line x1="853" x2="977" y1="22" y2="22" stroke="#0080ff" stroke-width="1"/>
   <text x="858" y="32" fill="#000000" font-size="10" font-family="Arial">-</text>
   <text x="858" y="45" fill="#000000" font-size="10" font-family="Arial">-</text>
   <text x="858" y="58" fill="#000000" font-size="10" font-family="Arial">-</text>
   <text x="858" y="71" fill="#000000" font-size="10" font-family="Arial">-</text>
   <text x="858" y="84" fill="#000000" font-size="10" font-family="Arial">-</text>
   <text x="858" y="97" fill="#000000" font-size="10" font-family="Arial" text-decoration="underline">-</text>
   <text x="869" y="32" fill="#000000" font-size="10" font-family="Arial">refProduit</text>
   <text x="869" y="45" fill="#000000" font-size="10" font-family="Arial">titre</text>
   <text x="869" y="58" fill="#000000" font-size="10" font-family="Arial">description</text>
   <text x="869" y="71" fill="#000000" font-size="10" font-family="Arial">photo</text>
   <text x="869" y="84" fill="#000000" font-size="10" font-family="Arial">prix</text>
   <text x="869" y="97" fill="#000000" font-size="10" font-family="Arial" text-decoration="underline">stock</text>
   <text x="928" y="32" fill="#000000" font-size="10" font-family="Arial">: String</text>
   <text x="928" y="45" fill="#000000" font-size="10" font-family="Arial">: String</text>
   <text x="928" y="58" fill="#000000" font-size="10" font-family="Arial">: String</text>
   <text x="928" y="71" fill="#000000" font-size="10" font-family="Arial">: String</text>
   <text x="928" y="84" fill="#000000" font-size="10" font-family="Arial">: Double</text>
   <text x="928" y="97" fill="#000000" font-size="10" font-family="Arial" text-decoration="underline">: int</text>
   <line x1="853" x2="977" y1="104" y2="104" stroke="#0080ff" stroke-width="1"/>
   <defs>
      <linearGradient id="Gradient6" x1="0%" x2="100%" y1="0%" y2="100%" gradientUnits="objectBoundingBox">
         <stop offset="5%" stop-color="#ffffff"/>
         <stop offset="95%" stop-color="#aee4ff"/>
      </linearGradient>
   </defs>
   <rect x="888" y="408" fill="url(#Gradient6)" width="147" height="77" stroke="#0080ff" stroke-width="1"/>
   <text x="961" y="419" fill="#000000" font-size="10" font-family="Arial" text-anchor="middle">DetailCommande</text>
   <line x1="888" x2="1035" y1="425" y2="425" stroke="#0080ff" stroke-width="1"/>
   <text x="893" y="435" fill="#000000" font-size="10" font-family="Arial">-</text>
   <text x="893" y="448" fill="#000000" font-size="10" font-family="Arial" text-decoration="underline">-</text>
   <text x="893" y="461" fill="#000000" font-size="10" font-family="Arial">-</text>
   <text x="904" y="435" fill="#000000" font-size="10" font-family="Arial">idDetail</text>
   <text x="904" y="448" fill="#000000" font-size="10" font-family="Arial" text-decoration="underline">prixUnitProduit</text>
   <text x="904" y="461" fill="#000000" font-size="10" font-family="Arial">quantiteProduit</text>
   <text x="985" y="435" fill="#000000" font-size="10" font-family="Arial">: int</text>
   <text x="985" y="448" fill="#000000" font-size="10" font-family="Arial" text-decoration="underline">: Double</text>
   <text x="985" y="461" fill="#000000" font-size="10" font-family="Arial">: int</text>
   <line x1="888" x2="1035" y1="468" y2="468" stroke="#0080ff" stroke-width="1"/>
   <defs>
      <linearGradient id="Gradient7" x1="0%" x2="100%" y1="0%" y2="100%" gradientUnits="objectBoundingBox">
         <stop offset="5%" stop-color="#ffffff"/>
         <stop offset="95%" stop-color="#aee4ff"/>
      </linearGradient>
   </defs>
   <rect x="129" y="237" fill="url(#Gradient7)" width="198" height="77" stroke="#0080ff" stroke-width="1"/>
   <text x="228" y="248" fill="#000000" font-size="10" font-family="Arial" text-anchor="middle">Client</text>
   <line x1="129" x2="327" y1="254" y2="254" stroke="#0080ff" stroke-width="1"/>
   <text x="134" y="264" fill="#000000" font-size="10" font-family="Arial">-</text>
   <text x="134" y="277" fill="#000000" font-size="10" font-family="Arial">-</text>
   <text x="145" y="264" fill="#000000" font-size="10" font-family="Arial">panier</text>
   <text x="145" y="277" fill="#000000" font-size="10" font-family="Arial">historiqueCommande</text>
   <text x="254" y="264" fill="#000000" font-size="10" font-family="Arial">: Panier</text>
   <text x="254" y="277" fill="#000000" font-size="10" font-family="Arial">: Commande</text>
   <line x1="129" x2="327" y1="284" y2="284" stroke="#0080ff" stroke-width="1"/>
   <text x="134" y="294" fill="#000000" font-size="10" font-family="Arial">+</text>
   <text x="134" y="307" fill="#000000" font-size="10" font-family="Arial">+</text>
   <text x="148" y="294" fill="#000000" font-size="10" font-family="Arial">ViderPanier ()</text>
   <text x="148" y="307" fill="#000000" font-size="10" font-family="Arial">annulerPanier ()</text>
   <text x="148" y="319" fill="#000000" font-size="10" font-family="Arial">...</text>
   <text x="232" y="294" fill="#000000" font-size="10" font-family="Arial">: void</text>
   <text x="232" y="307" fill="#000000" font-size="10" font-family="Arial">: void</text>
   <defs>
      <linearGradient id="Gradient8" x1="0%" x2="100%" y1="0%" y2="100%" gradientUnits="objectBoundingBox">
         <stop offset="5%" stop-color="#ffffff"/>
         <stop offset="95%" stop-color="#aee4ff"/>
      </linearGradient>
   </defs>
   <rect x="423" y="399" fill="url(#Gradient8)" width="179" height="103" stroke="#0080ff" stroke-width="1"/>
   <text x="512" y="410" fill="#000000" font-size="10" font-family="Arial" text-anchor="middle">Commande</text>
   <line x1="423" x2="602" y1="416" y2="416" stroke="#0080ff" stroke-width="1"/>
   <text x="428" y="426" fill="#000000" font-size="10" font-family="Arial" text-decoration="underline">-</text>
   <text x="428" y="439" fill="#000000" font-size="10" font-family="Arial">-</text>
   <text x="428" y="452" fill="#000000" font-size="10" font-family="Arial">-</text>
   <text x="428" y="465" fill="#000000" font-size="10" font-family="Arial">-</text>
   <text x="439" y="426" fill="#000000" font-size="10" font-family="Arial" text-decoration="underline">idCommande</text>
   <text x="439" y="439" fill="#000000" font-size="10" font-family="Arial">dateCommande</text>
   <text x="439" y="452" fill="#000000" font-size="10" font-family="Arial">listeProduit</text>
   <text x="439" y="465" fill="#000000" font-size="10" font-family="Arial">total</text>
   <text x="523" y="426" fill="#000000" font-size="10" font-family="Arial" text-decoration="underline">: int</text>
   <text x="523" y="439" fill="#000000" font-size="10" font-family="Arial">: Date</text>
   <text x="523" y="452" fill="#000000" font-size="10" font-family="Arial">: List&lt;Produit&gt;</text>
   <text x="523" y="465" fill="#000000" font-size="10" font-family="Arial">: Double</text>
   <line x1="423" x2="602" y1="472" y2="472" stroke="#0080ff" stroke-width="1"/>
   <text x="428" y="482" fill="#000000" font-size="10" font-family="Arial">+</text>
   <text x="428" y="495" fill="#000000" font-size="10" font-family="Arial">+</text>
   <text x="442" y="482" fill="#000000" font-size="10" font-family="Arial">ConfirmerCommande ()</text>
   <text x="442" y="495" fill="#000000" font-size="10" font-family="Arial">annulerCommande ()</text>
   <text x="442" y="507" fill="#000000" font-size="10" font-family="Arial">...</text>
   <text x="560" y="482" fill="#000000" font-size="10" font-family="Arial">: String</text>
   <text x="560" y="495" fill="#000000" font-size="10" font-family="Arial">: String</text>
   <defs>
      <linearGradient id="Gradient9" x1="0%" x2="100%" y1="0%" y2="100%" gradientUnits="objectBoundingBox">
         <stop offset="5%" stop-color="#ffffff"/>
         <stop offset="95%" stop-color="#aee4ff"/>
      </linearGradient>
   </defs>
   <rect x="1079" y="243" fill="url(#Gradient9)" width="164" height="83" stroke="#0080ff" stroke-width="1"/>
   <text x="1161" y="254" fill="#000000" font-size="10" font-family="Arial" text-anchor="middle">AdresseLivraison</text>
   <line x1="1079" x2="1243" y1="260" y2="260" stroke="#0080ff" stroke-width="1"/>
   <text x="1084" y="270" fill="#000000" font-size="10" font-family="Arial" text-decoration="underline">-</text>
   <text x="1084" y="283" fill="#000000" font-size="10" font-family="Arial">-</text>
   <text x="1084" y="296" fill="#000000" font-size="10" font-family="Arial">-</text>
   <text x="1095" y="270" fill="#000000" font-size="10" font-family="Arial" text-decoration="underline">codePostal</text>
   <text x="1095" y="283" fill="#000000" font-size="10" font-family="Arial">rue</text>
   <text x="1095" y="296" fill="#000000" font-size="10" font-family="Arial">ville</text>
   <text x="1155" y="270" fill="#000000" font-size="10" font-family="Arial" text-decoration="underline">: String</text>
   <text x="1155" y="283" fill="#000000" font-size="10" font-family="Arial">: String</text>
   <text x="1155" y="296" fill="#000000" font-size="10" font-family="Arial">: String</text>
   <line x1="1079" x2="1243" y1="303" y2="303" stroke="#0080ff" stroke-width="1"/>
</svg>
